<svg xmlns="http://www.w3.org/2000/svg" viewBox="0 0 64 64"><path d="M11 62c0-11 9.6-17.5 21-17.5S53 51 53 62v3H11z" fill="#6b7f96"/><path d="M22 13 18.5 2 30 8.5Z" fill="#6b7f96"/><path d="M42 13 45.5 2 34 8.5Z" fill="#6b7f96"/><path d="M22.8 11.4 21 5.4l5.8 3.3Z" fill="#6b7f96"/><path d="M41.2 11.4 43 5.4l-5.8 3.3Z" fill="#6b7f96"/><circle cx="32" cy="21" r="14" fill="#6b7f96"/><ellipse cx="32" cy="29" rx="11" ry="7.5" fill="#3b4a5e"/><path d="M22 30q10 14 20 0q-4 8-10 8t-10-8Z" fill="#3b4a5e"/><path d="M24.5 32.5l1.8 4 1.8-4ZM35.9 32.5l1.8 4 1.8-4Z" fill="#ffffff"/><circle cx="26.4" cy="18" r="3.4" fill="#e05a5a" opacity=".35"/><circle cx="37.6" cy="18" r="3.4" fill="#e05a5a" opacity=".35"/><circle cx="26.4" cy="18" r="2.1" fill="#e05a5a"/><circle cx="37.6" cy="18" r="2.1" fill="#e05a5a"/></svg>
