<svg xmlns="http://www.w3.org/2000/svg" viewBox="0 0 64 64"><path d="M11 62c0-11 9.6-17.5 21-17.5S53 51 53 62v3H11z" fill="#6b7f96"/><path d="M32 45v20" stroke="#3b4a5e" stroke-width="1.8"/><path d="M32 1c-6 0-9.5 3.5-9.5 8 0 2.5 1 4 2.5 5l-3 4h20l-3-4c1.5-1 2.5-2.5 2.5-5 0-4.5-3.5-8-9.5-8Z" fill="#e2e8f0"/><circle cx="28" cy="8" r="1.8" fill="#3b4a5e"/><circle cx="36" cy="8" r="1.8" fill="#3b4a5e"/><circle cx="32" cy="26" r="11" fill="#e2e8f0"/><circle cx="26.4" cy="24" r="1.9" fill="#3b4a5e"/><circle cx="37.6" cy="24" r="1.9" fill="#3b4a5e"/><path d="M27 31h10" stroke="#3b4a5e" stroke-width="1.8" stroke-linecap="round"/></svg>
