<svg xmlns="http://www.w3.org/2000/svg" viewBox="0 0 64 64"><path d="M7 62c0-12 11-19 25-19s25 7 25 19v3H7z" fill="#6b7f96"/><path d="M24 45l8 13 8-13" fill="none" stroke="#3b4a5e" stroke-width="2"/><path d="M32 3C19 3 11.5 13 11.5 26v11l7.5-2.8C17.5 27 18 16 32 16s14.5 11 13 18.2l7.5 2.8V26C52.5 13 45 3 32 3Z" fill="#3b4a5e"/><path d="M22 13 18.5 2 30 8.5Z" fill="#6b7f96"/><path d="M42 13 45.5 2 34 8.5Z" fill="#6b7f96"/><path d="M22.8 11.4 21 5.4l5.8 3.3Z" fill="#6b7f96"/><path d="M41.2 11.4 43 5.4l-5.8 3.3Z" fill="#6b7f96"/><circle cx="32" cy="24" r="11.5" fill="#6b7f96"/><ellipse cx="32" cy="30.5" rx="8.6" ry="6.4" fill="#3b4a5e"/><ellipse cx="32" cy="26.8" rx="2.7" ry="2.1" fill="#3b4a5e"/><circle cx="26.4" cy="22" r="3.4" fill="#f0a93b" opacity=".35"/><circle cx="37.6" cy="22" r="3.4" fill="#f0a93b" opacity=".35"/><circle cx="26.4" cy="22" r="2.1" fill="#f0a93b"/><circle cx="37.6" cy="22" r="2.1" fill="#f0a93b"/></svg>
