<svg xmlns="http://www.w3.org/2000/svg" viewBox="0 0 64 64"><path d="M11 62c0-11 9.6-17.5 21-17.5S53 51 53 62v3H11z" fill="#3b4a5e"/><path d="M32 45v20" stroke="#3b4a5e" stroke-width="1.8"/><path d="M32 3C19 3 11.5 13 11.5 26v11l7.5-2.8C17.5 27 18 16 32 16s14.5 11 13 18.2l7.5 2.8V26C52.5 13 45 3 32 3Z" fill="#6b7f96"/><circle cx="32" cy="24" r="11" fill="#e2e8f0"/><circle cx="26.4" cy="22" r="3.4" fill="#b58cf0" opacity=".35"/><circle cx="37.6" cy="22" r="3.4" fill="#b58cf0" opacity=".35"/><circle cx="26.4" cy="22" r="2.1" fill="#b58cf0"/><circle cx="37.6" cy="22" r="2.1" fill="#b58cf0"/><path d="M44 20c6 4 8 11 6 18" fill="none" stroke="#b58cf0" stroke-width="2" opacity=".7"/></svg>
