<svg xmlns="http://www.w3.org/2000/svg" viewBox="0 0 64 64"><path d="M11 62c0-11 9.6-17.5 21-17.5S53 51 53 62v3H11z" fill="#6b7f96"/><path d="M32 45v20" stroke="#3b4a5e" stroke-width="1.8"/><path d="M32 3C19 3 11.5 13 11.5 26v11l7.5-2.8C17.5 27 18 16 32 16s14.5 11 13 18.2l7.5 2.8V26C52.5 13 45 3 32 3Z" fill="#9fb0c4"/><circle cx="32" cy="25" r="11" fill="#e2e8f0"/><circle cx="26.4" cy="23" r="1.9" fill="#f0a93b"/><circle cx="37.6" cy="23" r="1.9" fill="#f0a93b"/><circle cx="50" cy="26" r="2.6" fill="#f0a93b"/><circle cx="55" cy="35" r="2" fill="#f0a93b" opacity=".8"/><circle cx="52" cy="45" r="2.3" fill="#f0a93b" opacity=".6"/><path d="M27 31h10" stroke="#3b4a5e" stroke-width="2.4" stroke-linecap="round"/></svg>
