<svg xmlns="http://www.w3.org/2000/svg" viewBox="0 0 64 64"><path d="M11 62c0-11 9.6-17.5 21-17.5S53 51 53 62v3H11z" fill="#e2e8f0"/><path d="M32 3C19 3 11.5 13 11.5 26v11l7.5-2.8C17.5 27 18 16 32 16s14.5 11 13 18.2l7.5 2.8V26C52.5 13 45 3 32 3Z" fill="#6b7f96"/><circle cx="10" cy="9" r="4" fill="#f0a93b"/><circle cx="54" cy="9" r="4" fill="#e05a5a"/><path d="M13 11 20 17M51 11 44 17" stroke="#6b7f96" stroke-width="2.6" stroke-linecap="round"/><circle cx="32" cy="25" r="11" fill="#e2e8f0"/><circle cx="26.4" cy="23" r="1.9" fill="#3b4a5e"/><circle cx="37.6" cy="23" r="1.9" fill="#3b4a5e"/><path d="M26 31q6 5 12 0" fill="none" stroke="#3b4a5e" stroke-width="1.8" stroke-linecap="round"/></svg>
